<?xml version="1.0" standalone="no"?>
<!DOCTYPE svg PUBLIC "-//W3C//DTD SVG 20010904//EN"
 "http://www.w3.org/TR/2001/REC-SVG-20010904/DTD/svg10.dtd">
<svg version="1.0" xmlns="http://www.w3.org/2000/svg"
 width="955.000000pt" height="1280.000000pt" viewBox="0 0 955.000000 1280.000000"
 preserveAspectRatio="xMidYMid meet">
<metadata>
Created by potrace 1.15, written by Peter Selinger 2001-2017
</metadata>
<g transform="translate(0.000000,1280.000000) scale(0.100000,-0.100000)"
fill="#607d8b" stroke="none">
<path d="M5928 12776 c-72 -29 -135 -76 -220 -163 -131 -132 -153 -179 -146
-311 5 -107 23 -143 93 -189 105 -68 98 -58 90 -131 -11 -101 -16 -109 -77
-121 -132 -26 -1486 -187 -2323 -276 -132 -14 -316 -34 -410 -45 -99 -12 -290
-24 -456 -29 -179 -6 -294 -13 -307 -20 -27 -15 -36 -48 -30 -113 9 -92 -10
-88 447 -88 219 0 422 4 452 10 87 15 263 37 579 70 464 48 1246 136 1699 191
228 27 422 47 432 44 10 -3 25 -25 33 -48 20 -53 98 -525 91 -548 -10 -32 -44
-51 -117 -65 -429 -88 -749 -156 -998 -214 -69 -16 -226 -52 -350 -80 -427
-97 -553 -136 -751 -236 -143 -71 -199 -110 -199 -136 0 -45 78 -295 256 -823
745 -2207 737 -2186 765 -2211 17 -16 27 -16 97 -6 94 15 142 15 142 2 0 -23
-66 -213 -105 -303 -77 -174 -208 -365 -427 -618 -168 -196 -405 -436 -417
-424 -15 16 -83 238 -225 739 -263 922 -426 1511 -426 1535 0 13 13 80 29 150
66 280 50 345 -98 421 l-56 28 37 16 c20 9 78 20 130 26 120 14 264 48 284 67
11 11 12 19 4 28 -12 15 -106 52 -210 84 -354 107 -371 114 -386 144 -45 86
-294 998 -294 1076 0 31 5 42 27 57 16 10 147 73 293 139 261 120 265 122 268
154 2 17 -4 56 -12 85 -20 66 -69 114 -152 146 -58 22 -60 22 -139 6 -44 -8
-143 -36 -220 -62 -254 -83 -888 -305 -1018 -356 -118 -46 -129 -53 -158 -94
-38 -55 -59 -105 -59 -140 0 -41 21 -101 43 -125 27 -29 66 -24 349 45 310 75
376 87 459 84 l72 -3 104 -360 c99 -344 173 -618 173 -643 0 -20 -67 -14 -368
33 -528 81 -585 88 -712 81 -223 -13 -1025 -108 -1280 -152 -178 -31 -248 -63
-224 -102 16 -26 121 -57 310 -91 217 -39 326 -67 341 -87 6 -8 14 -43 18 -77
4 -33 22 -107 41 -164 58 -179 126 -464 121 -508 -2 -22 -32 -111 -66 -198
-135 -345 -212 -690 -268 -1202 -25 -233 -25 -1070 0 -1260 72 -536 360 -1485
618 -2035 146 -312 305 -538 542 -767 235 -227 439 -330 697 -349 157 -12 373
34 499 107 75 43 212 178 288 284 81 112 189 332 242 490 63 191 122 485 191
960 17 116 39 257 50 315 37 203 38 206 75 220 13 5 115 27 227 50 243 49 447
101 529 135 105 42 339 223 627 483 68 62 129 112 136 112 7 0 33 -57 58 -127
l45 -128 80 -9 80 -9 7 -60 c3 -33 6 -126 6 -206 0 -207 18 -668 31 -786 38
-367 206 -1102 332 -1455 229 -643 660 -1478 943 -1830 151 -188 388 -409 591
-553 379 -267 769 -325 1164 -172 51 19 122 55 158 79 73 49 224 197 297 291
218 282 371 726 468 1355 58 377 60 408 60 960 1 342 -4 559 -12 645 -37 378
-109 668 -331 1325 -170 505 -279 785 -421 1077 -205 424 -394 688 -735 1029
-263 264 -422 380 -668 490 -142 63 -167 86 -217 204 -22 52 -57 119 -76 148
-56 81 -57 80 311 157 344 72 817 184 834 198 66 51 115 96 169 156 l63 70
-16 163 c-8 90 -22 208 -30 263 -35 238 -180 1301 -240 1760 -78 593 -121 893
-131 919 -6 17 -15 18 -83 13 -42 -4 -357 -63 -701 -132 -735 -148 -1034 -205
-1071 -205 -15 0 -31 6 -37 13 -22 27 -122 479 -122 554 0 31 4 43 18 46 37
11 124 28 287 57 298 54 1000 194 1247 249 190 43 239 63 287 118 49 54 59 98
36 143 -25 49 -82 70 -190 69 -107 0 -134 -10 -175 -67 -41 -57 -77 -77 -184
-102 -325 -75 -1001 -189 -1283 -216 l-71 -6 -35 53 c-56 86 -55 89 42 123
107 37 194 113 243 214 29 59 33 76 33 147 -1 71 -5 89 -36 156 -60 127 -143
199 -226 199 -21 0 -64 -11 -95 -24z m1815 -1608 c3 -13 36 -234 72 -493 36
-258 77 -551 91 -650 30 -212 91 -614 134 -875 77 -473 122 -761 127 -821 5
-63 4 -68 -18 -82 -13 -9 -53 -24 -89 -33 -63 -16 -64 -16 -81 5 -10 12 -22
55 -28 103 -35 256 -89 636 -161 1128 -166 1142 -230 1596 -230 1647 0 71 27
93 115 93 57 0 63 -2 68 -22z m-259 -47 c16 -30 70 -372 161 -1011 31 -217 79
-543 106 -725 122 -805 170 -1160 160 -1182 -11 -24 -105 -56 -149 -51 -35 4
-32 -12 -142 628 -207 1201 -370 2211 -370 2291 0 34 2 37 43 48 145 39 172
39 191 2z m-325 -55 c13 -15 29 -102 151 -811 50 -291 138 -796 195 -1121 129
-731 155 -889 155 -953 0 -49 -1 -50 -32 -56 -18 -4 -58 -5 -88 -3 l-55 3 -32
210 c-119 771 -313 1962 -377 2323 -58 321 -63 373 -43 391 35 28 108 39 126
17z m-162 -316 c61 -381 289 -1755 368 -2215 36 -209 65 -394 65 -412 0 -22
-7 -37 -22 -47 -32 -23 -85 -31 -103 -16 -26 21 -28 32 -219 1040 -80 421
-175 907 -210 1081 -67 325 -148 749 -150 784 -1 12 9 24 25 32 33 16 123 32
168 30 l35 -2 43 -275z m-322 197 c8 -19 50 -225 95 -458 318 -1665 376 -1970
411 -2178 22 -129 37 -241 34 -251 -8 -25 -47 -42 -86 -38 l-34 3 -27 110
c-15 61 -66 315 -112 565 -103 554 -287 1518 -360 1885 -69 346 -68 340 -48
359 22 19 61 35 90 35 17 1 27 -8 37 -32z m-197 -49 c10 -14 30 -115 306
-1593 210 -1124 228 -1226 224 -1269 -4 -40 -34 -54 -130 -62 l-74 -7 -72 324
c-178 804 -505 2396 -518 2525 -7 70 -16 61 81 83 62 14 171 13 183 -1z m-667
-8 c5 0 9 -4 9 -9 0 -26 -284 -101 -304 -81 -15 15 4 43 35 52 51 15 225 45
237 42 8 -2 18 -4 23 -4z m-373 -87 c-4 -26 -78 -59 -193 -87 -179 -44 -313
-54 -302 -22 6 17 87 43 272 85 197 46 228 49 223 24z m360 -22 c10 -6 8 -36
-13 -151 -14 -79 -31 -152 -37 -163 -10 -20 -11 -20 -25 -1 -17 24 -59 155
-68 214 -8 57 8 81 67 96 55 15 60 15 76 5z m-205 -127 c55 -148 96 -384 67
-384 -15 0 -34 52 -69 188 -38 146 -51 257 -30 250 8 -3 22 -27 32 -54z m-728
16 c0 -23 -63 -49 -174 -70 -116 -23 -157 -25 -167 -8 -9 15 21 36 71 48 22 6
69 19 105 29 78 23 165 23 165 1z m583 7 c14 -17 83 -246 129 -427 l36 -145
-27 -109 c-33 -130 -130 -424 -145 -439 -7 -7 -15 0 -25 25 -26 62 -245 844
-271 966 -15 75 -24 68 135 112 118 32 153 36 168 17z m-404 -93 c35 -34 37
-39 221 -714 64 -234 119 -447 122 -475 6 -58 -21 -140 -38 -114 -14 21 -74
215 -219 709 -140 475 -165 571 -156 595 7 20 50 19 70 -1z m-604 -14 c0 -5
-11 -17 -24 -25 -37 -24 -291 -86 -380 -92 -72 -6 -78 -5 -74 13 4 24 74 64
113 64 17 0 82 11 145 24 121 25 220 33 220 16z m482 -95 c64 -192 388 -1306
388 -1335 0 -12 -21 -90 -46 -174 -26 -83 -55 -180 -65 -216 -26 -90 -40 -121
-53 -117 -17 6 -70 166 -206 627 -71 239 -174 588 -230 775 -56 187 -104 366
-107 397 l-6 57 69 20 c227 68 221 69 256 -34z m-418 -142 c80 -251 397 -1390
507 -1823 36 -141 48 -205 44 -230 -15 -80 -159 -450 -176 -450 -5 0 -15 12
-22 28 -50 96 -640 2011 -732 2374 -39 150 -43 140 83 177 158 46 235 60 249
47 6 -6 27 -61 47 -123z m1475 -128 c85 -447 336 -1912 356 -2077 9 -80 -9
-75 -35 10 -18 58 -342 1292 -430 1642 -28 110 -31 136 -27 220 7 129 76 396
97 374 5 -5 22 -81 39 -169z m-1955 133 c8 -13 57 -162 110 -333 547 -1783
681 -2231 701 -2337 6 -34 5 -38 -14 -38 -13 0 -27 12 -37 33 -17 31 -104 315
-225 727 -33 113 -122 410 -199 660 -76 250 -180 592 -230 760 -51 168 -108
354 -127 413 -27 86 -32 111 -22 123 16 20 26 18 43 -8z m-180 -113 l6 -40
-15 30 c-16 33 -21 91 -6 65 5 -8 12 -33 15 -55z m-291 8 c16 -18 45 -104 111
-329 38 -126 42 -154 27 -154 -8 0 -171 472 -171 494 0 12 17 6 33 -11z m204
-65 c-3 -7 -5 -2 -5 12 0 14 2 19 5 13 2 -7 2 -19 0 -25z m130 -95 c-3 -10 -5
-4 -5 12 0 17 2 24 5 18 2 -7 2 -21 0 -30z m35 -115 c-9 -9 -12 -7 -12 12 0
19 3 21 12 12 9 -9 9 -15 0 -24z m1951 -405 c93 -345 198 -752 312 -1198 l96
-380 -36 -33 c-20 -18 -41 -32 -48 -29 -13 4 -62 197 -167 657 -39 173 -116
498 -171 721 -54 223 -99 419 -99 435 0 29 24 74 39 74 4 0 38 -111 74 -247z
m-2156 120 c-3 -10 -5 -2 -5 17 0 19 2 27 5 18 2 -10 2 -26 0 -35z m40 -100
c-3 -10 -5 -4 -5 12 0 17 2 24 5 18 2 -7 2 -21 0 -30z m1971 3 c17 -37 70
-260 212 -888 144 -636 167 -744 172 -803 3 -39 2 -40 -36 -53 -22 -7 -71 -17
-109 -22 -85 -13 -88 -11 -116 85 -17 58 -233 883 -296 1132 l-19 73 79 242
c43 134 80 246 82 251 8 14 20 7 31 -17z m-4098 -457 c-90 -23 -260 -37 -260
-22 0 12 40 30 80 36 14 2 77 4 140 5 l115 0 -75 -19z m3890 -221 c5 -13 53
-192 106 -398 52 -206 116 -451 140 -544 36 -134 42 -171 32 -178 -22 -13 -46
27 -77 130 -59 192 -201 689 -226 792 -27 114 -30 155 -15 194 12 32 27 33 40
4z m-4383 -113 c156 -25 292 -50 303 -57 29 -19 52 -74 54 -130 l1 -50 -122
-52 c-141 -61 -209 -100 -301 -175 -85 -67 -110 -80 -123 -60 -26 40 -103 328
-119 442 -10 71 -3 127 17 127 5 0 135 -20 290 -45z m1291 -97 c2 -11 -17 -30
-56 -56 -81 -55 -117 -107 -162 -229 -15 -39 -39 -43 -81 -12 -73 52 -230 107
-379 133 -110 19 -114 21 -133 62 -20 41 -21 60 -4 71 6 4 152 13 322 20 171
7 326 17 345 22 19 5 60 9 90 8 42 -2 56 -6 58 -19z m3021 -45 c19 -41 202
-688 235 -830 10 -47 11 -64 3 -71 -14 -11 -152 -47 -215 -57 -71 -11 -87 14
-158 245 -56 185 -56 188 15 445 52 191 88 295 100 295 4 0 13 -12 20 -27z
m-2685 -90 c92 -313 146 -528 146 -579 0 -78 -63 -364 -80 -364 -10 0 -46 50
-105 145 -67 108 -237 333 -322 425 l-70 74 20 51 c45 120 110 181 256 242 69
28 147 31 155 6z m-1219 -253 c16 -6 32 -24 42 -47 36 -86 259 -899 306 -1113
43 -195 43 -194 -3 -435 -22 -120 -43 -222 -46 -226 -22 -37 -54 62 -148 461
-80 338 -157 654 -257 1058 -48 192 -61 257 -53 270 21 34 108 51 159 32z
m260 -34 c28 -28 38 -91 33 -226 l-3 -95 -42 130 c-47 149 -57 190 -48 205 10
17 35 11 60 -14z m164 -62 c25 -15 75 -47 110 -72 l64 -45 -6 -61 c-13 -135
-120 -630 -139 -642 -14 -9 -25 12 -38 71 -42 192 -78 775 -48 775 6 0 32 -12
57 -26z m-636 -56 c29 -73 106 -341 137 -478 31 -137 107 -459 215 -905 52
-214 97 -413 101 -442 10 -77 -20 -223 -45 -223 -15 0 -42 54 -223 455 -219
483 -251 558 -298 715 -70 228 -170 602 -170 633 0 45 38 112 105 185 56 61
129 122 145 122 5 0 19 -28 33 -62z m1008 -257 c38 -38 38 -52 -6 -348 -20
-131 -49 -337 -65 -457 -17 -120 -37 -261 -45 -312 -8 -52 -15 -96 -15 -99 0
-3 -4 -5 -9 -5 -19 0 -87 208 -97 295 -7 58 30 274 107 626 57 261 76 329 90
329 6 0 24 -13 40 -29z m2871 -97 c41 -124 31 -158 -46 -152 -37 3 -41 6 -44
33 -6 50 40 179 61 173 7 -3 19 -27 29 -54z m-2733 -97 c115 -175 281 -471
281 -503 0 -34 -142 -689 -167 -769 -39 -128 -199 -415 -230 -415 -16 0 -45
97 -88 295 l-34 160 60 430 c33 236 71 515 86 620 25 188 35 235 50 235 5 0
23 -24 42 -53z m-1483 -162 c27 -106 205 -752 360 -1307 21 -73 -123 82 -449
487 -54 66 -111 148 -128 183 -29 56 -31 68 -26 125 10 100 132 571 170 654
18 40 34 9 73 -142z m2018 137 c8 -15 37 -115 66 -222 104 -396 414 -1524 492
-1795 116 -401 188 -665 188 -686 0 -29 -39 -49 -96 -49 l-52 0 -11 48 c-6 26
-18 112 -26 192 -63 573 -217 1152 -477 1790 -134 331 -168 424 -168 467 0 47
28 220 42 256 13 34 24 34 42 -1z m3790 7 c67 -19 186 -150 186 -206 0 -31
-23 -39 -135 -46 -145 -11 -245 -39 -393 -114 -72 -36 -135 -63 -140 -59 -12
13 -8 209 6 249 28 78 102 135 216 168 69 20 202 24 260 8z m-974 -178 c0 -17
-68 -95 -435 -501 -224 -247 -608 -679 -909 -1022 -71 -81 -141 -155 -154
-164 -24 -16 -26 -16 -42 4 -21 26 -73 170 -67 186 3 6 85 115 182 241 305
394 325 428 469 785 104 257 124 295 168 309 51 16 212 55 453 110 121 27 229
52 240 54 37 9 95 7 95 -2z m284 -150 c29 -86 56 -208 56 -251 0 -19 -30 -73
-92 -167 -171 -255 -304 -547 -409 -893 -17 -58 -40 -121 -50 -141 -18 -36
-19 -37 -106 -48 -274 -36 -325 -51 -351 -104 -11 -23 -11 -37 2 -88 26 -98
25 -100 -56 -152 -40 -25 -165 -121 -278 -212 -255 -206 -306 -234 -505 -271
-77 -14 -179 -28 -226 -31 -83 -5 -87 -5 -94 16 -5 17 6 39 47 95 68 95 258
327 435 532 283 330 1025 1188 1248 1444 126 146 252 292 279 324 58 69 61 68
100 -53z m887 -201 c25 -7 40 -19 48 -38 30 -74 171 -800 215 -1113 38 -267
90 -1078 112 -1771 11 -321 5 -309 -164 332 -124 467 -176 657 -412 1495 -104
369 -207 740 -229 825 -40 152 -41 156 -23 180 22 30 87 64 162 84 64 17 238
20 291 6z m393 -151 c50 -29 125 -77 166 -108 94 -69 431 -404 455 -451 10
-19 18 -53 17 -75 0 -22 -39 -209 -87 -415 -208 -901 -252 -1080 -266 -1080
-17 0 -11 -30 -233 1120 -63 327 -126 670 -140 761 -28 176 -34 299 -15 299 6
0 52 -23 103 -51z m-911 -58 c25 -63 318 -1103 481 -1706 19 -71 71 -263 116
-425 127 -463 148 -552 121 -524 -9 8 -115 214 -463 895 -61 118 -111 229
-117 260 -7 30 -57 317 -112 638 -55 321 -108 627 -118 680 -19 93 -19 97 -1
137 18 42 53 84 69 84 5 0 16 -18 24 -39z m-3609 3 c25 -9 19 -40 -14 -76
l-29 -33 -1 38 c0 34 14 77 25 77 2 0 10 -3 19 -6z m-2073 -171 c119 -124 494
-581 557 -680 54 -85 146 -387 140 -461 -3 -33 -6 -37 -28 -34 -26 4 -423 160
-600 236 -58 25 -113 55 -122 66 -25 30 -30 109 -31 515 -2 341 2 415 21 415
4 0 33 -26 63 -57z m2168 -71 c77 -203 221 -681 221 -737 0 -42 -12 -51 -163
-117 -381 -167 -447 -192 -460 -171 -6 9 135 654 188 866 27 104 60 174 122
255 18 25 28 30 38 22 7 -5 31 -59 54 -118z m-1596 76 c3 -7 36 -80 72 -163
37 -82 79 -181 95 -220 15 -38 51 -119 80 -180 101 -215 115 -269 85 -341 -40
-97 -108 13 -205 336 -53 173 -150 539 -150 562 0 21 15 24 23 6z m4877 -120
c7 -19 37 -198 96 -580 13 -87 -31 -25 -152 216 l-86 168 38 86 c57 126 85
156 104 110z m-4166 -140 c53 -194 60 -238 53 -351 -7 -107 -67 -451 -85 -482
-7 -14 -11 -3 -16 51 -14 150 -26 440 -26 651 0 213 8 289 30 267 5 -5 25 -66
44 -136z m4054 -240 c79 -144 228 -456 252 -528 12 -36 44 -198 70 -360 56
-344 67 -430 52 -430 -20 0 -191 199 -256 296 -18 28 -29 60 -32 95 -9 100
-74 343 -119 444 -28 63 -48 81 -116 103 l-54 17 1 46 c3 70 121 409 144 409
4 0 30 -42 58 -92z m2017 -15 c146 -201 405 -704 405 -788 0 -14 -21 -60 -47
-103 -188 -312 -669 -1043 -691 -1050 -15 -5 -46 64 -91 199 l-32 96 36 154
c67 286 276 1223 305 1365 16 78 32 149 36 158 11 30 43 17 79 -31z m-6186
-139 c12 -100 16 -242 9 -250 -8 -8 -34 38 -52 89 -24 72 -20 178 10 267 10
28 23 -13 33 -106z m506 -212 c-17 -81 -44 -147 -60 -147 -17 1 -38 57 -38
100 0 43 15 79 72 165 l36 55 3 -48 c2 -27 -4 -83 -13 -125z m-240 43 c14 -46
25 -97 25 -115 0 -54 -122 -290 -150 -290 -5 0 -10 14 -10 31 0 55 62 454 72
467 18 21 36 -5 63 -93z m1929 -128 c16 -31 31 -76 33 -100 5 -41 2 -48 -73
-147 -43 -57 -105 -131 -136 -165 -56 -58 -58 -59 -73 -40 -14 18 -45 109 -59
177 -5 21 5 43 44 102 62 91 202 240 221 234 8 -2 27 -29 43 -61z m-950 21
c42 -66 134 -606 154 -912 l8 -109 -60 -43 c-33 -24 -70 -44 -83 -44 -39 0
-956 536 -950 555 2 6 50 21 106 35 67 16 107 32 116 44 8 10 17 48 20 84 9
94 12 100 56 128 74 46 576 281 606 283 7 1 19 -9 27 -21z m-1317 -34 c8 -21
12 -50 11 -64 l-3 -24 -19 28 c-23 37 -35 111 -16 104 7 -2 20 -22 27 -44z
m-942 -69 c222 -85 494 -203 539 -234 66 -44 73 -65 52 -155 l-18 -76 28 -54
c27 -53 27 -56 10 -75 -35 -38 -616 -321 -660 -321 -46 0 -201 905 -166 970
12 23 13 23 215 -55z m713 -38 c-2 -17 -8 -32 -14 -34 -22 -7 -46 82 -27 101
14 14 44 -36 41 -67z m212 -67 c7 -17 10 -33 7 -37 -19 -18 -74 45 -63 72 8
23 40 3 56 -35z m438 -1 c23 -79 15 -100 -53 -136 -33 -17 -71 -33 -85 -35
-21 -3 -25 1 -22 22 3 28 69 143 102 178 29 31 42 24 58 -29z m-455 -117 c36
-34 35 -52 -4 -52 -46 0 -69 16 -69 49 0 15 3 30 6 34 9 9 36 -4 67 -31z
m5558 -204 c5 -29 31 -199 59 -378 28 -179 60 -372 71 -430 15 -73 20 -125 16
-170 -6 -76 -80 -398 -98 -432 -13 -23 -13 -23 -20 12 -4 19 -12 166 -18 325
-15 368 -29 704 -37 870 -6 124 1 273 13 261 3 -3 10 -29 14 -58z m1223 -5
c90 -180 213 -499 281 -736 45 -152 44 -161 -2 -190 -60 -37 -877 -417 -947
-441 -45 -15 -51 -15 -67 0 -23 21 -68 134 -76 190 -5 40 -1 52 42 126 26 46
161 256 300 468 139 212 274 419 300 460 73 115 115 170 131 170 7 0 24 -21
38 -47z m-5973 -318 c255 -142 476 -266 492 -277 17 -12 24 -24 20 -32 -5 -7
-42 -42 -83 -77 -41 -35 -126 -112 -187 -171 -62 -59 -119 -108 -127 -108 -26
0 -36 24 -76 178 l-11 42 -72 0 c-40 0 -77 4 -83 8 -14 9 -394 675 -401 703
-5 20 -4 20 29 6 19 -8 244 -131 499 -272z m3507 231 c41 -21 76 -63 235 -276
l145 -195 27 -135 c27 -136 62 -285 109 -458 22 -81 23 -94 10 -99 -18 -7
-161 48 -504 195 -298 127 -336 146 -352 174 -10 18 -13 104 -13 363 0 187 3
353 8 368 9 34 30 44 127 61 101 18 175 19 208 2z m-4418 -458 c-266 -817
-413 -1253 -427 -1268 -12 -13 -16 -12 -33 10 -38 50 -180 447 -182 510 -1 29
23 73 147 265 398 619 613 927 623 897 2 -6 -56 -192 -128 -414z m225 335
c-22 -363 -37 -568 -46 -624 -10 -63 -13 -69 -70 -122 -34 -33 -59 -65 -59
-77 0 -11 21 -107 47 -213 47 -191 47 -193 47 -362 -1 -251 -46 -902 -66 -955
-10 -25 -10 -25 -71 40 -150 158 -287 346 -393 538 l-29 53 239 712 c301 898
373 1097 397 1097 5 0 6 -39 4 -87z m-231 20 c-134 -233 -649 -993 -671 -993
-8 0 -23 19 -33 43 -22 49 -115 418 -125 495 -12 93 -7 98 198 197 454 220
633 304 645 305 10 0 5 -15 -14 -47z m4969 -50 c22 -35 404 -783 504 -985 70
-143 69 -176 -2 -91 -94 112 -351 442 -383 492 -68 106 -92 173 -122 340 -51
282 -50 329 3 244z m-4654 -70 c18 -39 61 -322 68 -449 7 -125 12 -115 -70
-130 -75 -13 -78 4 -52 356 19 257 26 286 54 223z m201 -79 c86 -133 202 -359
198 -386 -2 -15 -13 -24 -36 -30 -39 -10 -55 -1 -79 46 -25 49 -162 466 -153
466 4 0 36 -43 70 -96z m-47 -129 c84 -234 97 -286 77 -310 -13 -16 -57 -20
-76 -7 -18 11 -32 66 -59 223 -30 180 -42 309 -28 309 6 0 44 -97 86 -215z
m1165 -279 c7 -156 -136 -959 -182 -1022 -12 -16 -25 0 -128 157 -225 342
-328 531 -312 574 7 18 45 20 61 4 17 -17 87 25 238 142 246 190 288 220 304
217 12 -3 17 -18 19 -72z m3611 -330 c167 -219 254 -347 243 -358 -12 -12
-136 28 -224 74 l-78 40 -26 82 c-33 105 -84 314 -84 344 0 21 2 22 15 12 8
-7 77 -94 154 -194z m1996 128 c68 -144 145 -476 206 -884 33 -220 50 -512 31
-524 -19 -12 -368 123 -972 376 -415 174 -569 243 -589 262 -13 14 -11 17 21
30 19 8 74 25 121 37 149 37 179 68 187 193 l5 80 463 233 c255 128 474 233
487 233 16 0 27 -10 40 -36z m-2745 -141 c195 -80 388 -159 428 -176 62 -25
76 -36 92 -68 33 -63 61 -183 64 -276 3 -58 11 -107 25 -143 12 -30 21 -62 21
-70 0 -20 -38 -44 -233 -147 -89 -47 -241 -130 -338 -184 -99 -56 -187 -99
-202 -99 -35 0 -48 26 -86 171 -80 301 -181 911 -181 1098 0 53 0 53 28 46 15
-3 187 -72 382 -152z m1400 -9 c6 -14 10 -38 10 -52 0 -49 -88 -210 -104 -191
-5 6 23 158 39 217 17 58 39 68 55 26z m65 -214 c18 -35 19 -74 3 -88 -21 -16
-85 -25 -93 -13 -16 27 31 131 60 131 8 0 21 -13 30 -30z m-4738 -235 c78
-126 159 -261 178 -298 l36 -68 -17 -52 c-45 -135 -192 -430 -220 -441 -20 -8
-31 18 -142 334 -168 478 -224 648 -220 672 2 18 20 28 93 55 145 52 127 65
292 -202z m-437 103 c28 -46 43 -87 207 -563 90 -262 146 -436 147 -464 1 -42
-2 -46 -70 -110 -96 -90 -220 -173 -253 -169 -30 4 -34 15 -62 208 -23 160
-79 478 -138 785 -53 273 -54 280 -36 295 23 19 115 48 153 49 26 1 36 -5 52
-31z m4556 -23 c37 -24 31 -45 -14 -45 -45 0 -82 23 -82 52 0 18 4 20 36 15
20 -3 47 -13 60 -22z m-4827 -38 c22 -58 200 -1119 203 -1217 3 -62 2 -65 -26
-79 -82 -39 -433 78 -511 171 l-28 33 6 140 c7 162 23 478 37 714 11 190 19
211 78 212 20 0 71 11 112 23 99 31 118 31 129 3z m5747 -433 c241 -97 500
-200 574 -229 245 -95 544 -217 593 -242 35 -17 53 -34 63 -58 36 -87 -3 -588
-81 -1044 -34 -196 -46 -241 -64 -241 -22 0 -189 206 -531 655 -430 563 -717
934 -850 1100 -178 222 -187 235 -157 235 8 0 211 -79 453 -176z m-783 150 c7
-7 -241 -506 -323 -649 -31 -55 -124 -224 -205 -375 -241 -449 -253 -469 -275
-455 -28 17 -147 312 -291 718 -47 136 -60 183 -52 195 19 31 120 91 458 272
498 267 567 300 630 300 28 0 54 -3 58 -6z m203 -618 c13 -276 30 -629 39
-786 33 -627 61 -1567 47 -1589 -19 -27 -60 5 -258 203 -166 166 -393 427
-410 471 -8 20 503 2183 523 2214 15 23 16 23 26 6 6 -11 20 -240 33 -519z
m-150 482 c-3 -13 -15 -72 -26 -133 -33 -174 -327 -1486 -366 -1635 -46 -173
-83 -290 -92 -290 -4 0 -22 25 -40 55 -45 74 -284 537 -285 550 0 10 461 898
538 1035 23 41 57 104 75 140 38 77 182 300 193 300 4 0 5 -10 3 -22z m243
-160 c20 -62 255 -892 345 -1218 128 -464 418 -1564 429 -1624 11 -65 11 -69
-10 -86 -62 -50 -264 -32 -502 45 -131 42 -164 69 -180 146 -6 28 -16 173 -21
322 -14 387 -38 925 -55 1257 -37 724 -56 1158 -50 1188 3 17 10 32 15 32 4 0
18 -28 29 -62z m117 -51 c72 -127 270 -532 514 -1052 167 -356 250 -538 552
-1220 l80 -179 -18 -36 c-40 -75 -322 -330 -365 -330 -18 0 -42 54 -69 157
-16 60 -56 214 -90 343 -33 129 -92 345 -130 480 -245 873 -371 1315 -455
1600 -52 178 -95 330 -95 338 0 26 20 0 76 -101z m199 -107 c72 -91 282 -363
465 -605 184 -242 433 -568 553 -724 120 -156 224 -292 229 -301 17 -27 -99
-344 -197 -540 -24 -49 -49 -91 -54 -94 -22 -14 -44 31 -282 566 -128 288
-285 624 -492 1053 -278 576 -397 828 -397 838 0 19 42 -28 175 -193z"/>
</g>
</svg>
