<?xml version="1.0" standalone="no"?>
<!DOCTYPE svg PUBLIC "-//W3C//DTD SVG 20010904//EN"
 "http://www.w3.org/TR/2001/REC-SVG-20010904/DTD/svg10.dtd">
<svg version="1.0" xmlns="http://www.w3.org/2000/svg"
 width="1190.000000pt" height="1280.000000pt" viewBox="0 0 1190.000000 1280.000000"
 preserveAspectRatio="xMidYMid meet">
<g transform="translate(0.000000,1280.000000) scale(0.100000,-0.100000)"
fill="#000000" stroke="none">
<path d="M7115 12788 c-22 -5 -76 -18 -120 -29 -130 -33 -389 -168 -549 -288
-90 -68 -156 -191 -180 -337 l-7 -41 31 5 32 5 -4 -136 c-3 -115 -6 -138 -22
-156 -10 -11 -16 -27 -12 -36 12 -31 -48 -103 -153 -183 -17 -13 -31 -30 -31
-39 0 -9 23 -37 50 -64 60 -58 65 -87 20 -119 -20 -14 -30 -30 -30 -46 0 -25
40 -74 60 -74 7 0 8 -17 4 -50 l-6 -49 40 -17 c51 -20 60 -44 31 -85 -17 -24
-20 -39 -16 -71 13 -94 86 -115 267 -80 162 32 185 34 228 23 81 -22 106 -57
171 -238 21 -60 52 -139 70 -177 17 -38 31 -74 31 -80 0 -6 -29 -43 -64 -83
-35 -39 -76 -88 -92 -108 -15 -20 -45 -45 -66 -56 -49 -25 -98 -92 -98 -134 0
-38 -75 -157 -202 -322 -118 -153 -168 -245 -168 -308 0 -96 98 -218 325 -408
189 -157 175 -142 169 -179 -17 -91 -86 -345 -113 -413 -52 -136 -92 -180
-241 -271 -35 -21 -150 -106 -255 -187 -243 -189 -401 -295 -543 -364 -130
-63 -154 -65 -163 -11 -7 43 -22 64 -62 84 -25 13 -49 14 -176 5 -80 -6 -165
-14 -188 -17 -40 -5 -45 -2 -104 51 -91 84 -152 110 -264 110 -73 -1 -98 -5
-131 -22 -51 -27 -90 -72 -99 -114 -6 -25 -2 -36 20 -59 15 -16 25 -33 21 -38
-3 -5 -56 -12 -118 -16 -212 -13 -408 -51 -516 -101 -72 -33 -170 -134 -211
-216 -46 -94 -67 -206 -53 -291 20 -135 69 -198 235 -305 123 -80 192 -143
207 -190 13 -38 -1 -97 -45 -184 -21 -41 -28 -47 -65 -52 -74 -10 -114 -52
-147 -155 -16 -50 -16 -56 1 -105 l17 -52 -378 -794 c-207 -436 -383 -796
-391 -799 -8 -2 -73 14 -145 36 -159 50 -235 68 -370 87 -120 17 -452 20 -577
5 -681 -83 -1290 -479 -1648 -1072 -238 -395 -357 -928 -304 -1358 68 -552
294 -1018 668 -1380 352 -341 782 -547 1284 -616 240 -32 306 -31 610 12 777
112 1459 664 1745 1414 94 245 139 499 139 785 0 211 -9 306 -51 493 -124 567
-508 1108 -994 1400 -43 26 -78 53 -79 61 0 14 241 529 266 569 10 15 20 20
29 15 7 -5 110 -110 227 -234 117 -124 328 -346 468 -494 140 -148 341 -359
445 -470 105 -111 343 -363 530 -560 501 -529 545 -576 545 -588 0 -28 -215
-677 -238 -721 -47 -85 -152 -162 -286 -208 -74 -24 -136 -74 -136 -107 0 -35
16 -46 395 -248 l110 -58 5 -82 c8 -135 -14 -127 373 -131 177 -2 337 0 355 3
53 10 72 52 72 158 0 108 -13 138 -71 161 l-42 17 7 75 c4 41 9 81 12 88 3 9
34 16 90 20 176 15 316 78 440 201 94 93 152 196 179 319 12 52 22 77 33 80
10 3 78 8 153 11 155 8 142 16 154 -85 23 -192 101 -443 205 -658 198 -408
486 -719 879 -949 280 -164 554 -251 934 -298 227 -28 547 5 817 83 694 204
1260 750 1485 1435 95 289 141 629 116 841 -48 386 -108 607 -235 859 -325
643 -904 1072 -1626 1202 -144 26 -499 32 -664 11 -367 -48 -731 -195 -1038
-421 -33 -24 -40 -26 -54 -14 -35 28 -164 182 -164 194 0 8 35 25 81 40 166
56 315 188 466 418 l86 129 -15 32 c-29 59 -106 142 -258 276 -83 74 -183 171
-221 215 -183 212 -220 430 -94 562 l45 46 129 -6 c71 -3 167 -2 212 3 144 17
268 93 315 195 29 61 30 95 4 176 l-19 63 45 67 c122 184 168 413 121 599 -24
93 -87 214 -154 296 -319 393 -411 519 -525 719 -182 319 -313 682 -373 1032
-38 224 -59 583 -35 598 5 3 28 -4 51 -16 24 -12 69 -24 100 -26 169 -16 296
174 204 305 -24 33 -70 53 -126 54 -67 0 -113 -27 -117 -71 -4 -40 21 -81 50
-81 20 0 21 1 3 20 -37 41 23 98 74 71 43 -24 34 -87 -21 -138 -56 -52 -128
-31 -167 49 -40 83 -23 145 62 236 30 31 62 72 71 90 l17 33 30 -22 c75 -53
147 -39 180 37 34 75 7 142 -64 159 -51 13 -98 -40 -65 -73 9 -9 14 -6 22 11
15 28 56 35 73 11 19 -26 16 -57 -8 -88 -18 -23 -27 -27 -67 -24 -71 5 -79 26
-63 171 15 139 8 175 -49 240 -22 25 -40 50 -40 56 0 6 18 8 49 4 64 -7 115
11 147 52 49 65 40 159 -20 196 -47 28 -120 26 -151 -6 -14 -13 -25 -32 -25
-41 0 -16 1 -16 18 -1 24 22 45 21 65 -1 34 -37 11 -92 -39 -92 -13 0 -38 13
-56 29 -28 25 -33 36 -33 75 0 39 5 50 38 84 21 21 64 50 95 65 31 14 97 44
146 67 50 22 114 59 144 82 278 209 455 596 439 958 -14 327 -162 552 -402
615 -127 33 -302 11 -440 -55 -47 -22 -79 -48 -121 -95 -92 -105 -143 -105
-237 -1 -86 97 -167 138 -342 176 -96 21 -166 24 -230 8z m887 -545 c83 -89
96 -203 49 -415 -35 -161 -72 -255 -148 -375 -69 -112 -87 -130 -207 -216
-155 -111 -246 -214 -284 -320 -11 -30 -22 -47 -31 -45 -8 2 -30 31 -49 66
-32 58 -33 64 -19 86 9 13 53 48 99 78 46 30 150 99 232 154 158 104 203 149
249 246 95 202 124 489 67 664 -33 100 -13 135 42 77z m-252 -1291 c80 -40
102 -133 54 -230 -14 -29 -32 -52 -40 -52 -20 0 -17 24 6 62 50 82 -6 188 -98
188 -36 0 -51 -16 -24 -24 11 -4 24 -18 31 -32 32 -71 -79 -130 -128 -68 -34
43 -28 99 13 140 31 31 39 34 93 34 35 0 72 -7 93 -18z m-613 -2759 c9 -21 33
-109 54 -195 27 -108 58 -203 100 -300 34 -79 70 -179 81 -223 19 -72 20 -86
8 -140 -7 -33 -12 -78 -11 -101 2 -58 -24 -88 -74 -86 -22 1 -51 -6 -69 -17
-48 -29 -163 -67 -244 -81 -59 -10 -80 -19 -115 -48 -116 -97 -252 -167 -592
-305 -384 -155 -649 -266 -710 -297 -33 -17 -70 -30 -81 -30 -20 0 -328 -106
-479 -164 -88 -35 -342 -160 -374 -185 l-25 -19 12 -109 c14 -134 33 -207 78
-302 47 -100 107 -182 194 -265 46 -44 68 -72 62 -78 -6 -6 -90 3 -233 26
-123 19 -341 54 -484 76 -311 48 -315 49 -315 61 0 5 41 97 92 204 89 190 92
195 128 205 100 27 162 205 101 287 l-25 33 39 87 c53 123 63 191 42 279 -31
124 -92 191 -321 348 -111 77 -132 109 -122 184 16 119 89 207 202 242 152 47
382 64 609 46 44 -4 123 -3 175 2 52 5 100 7 106 5 6 -2 20 -24 32 -48 58
-120 160 -113 586 41 531 193 1111 462 1330 618 85 60 121 105 169 203 22 46
44 83 49 83 5 0 16 -17 25 -37z m-2457 -3144 c459 -71 845 -132 856 -135 18
-3 24 -15 33 -66 12 -70 55 -161 135 -291 30 -48 62 -108 72 -133 17 -45 17
-46 -9 -109 -15 -36 -24 -70 -22 -78 3 -7 34 -34 68 -60 34 -26 118 -106 186
-178 l124 -131 -27 -294 c-29 -323 -50 -465 -97 -653 -37 -149 -45 -171 -61
-171 -7 0 -98 91 -203 202 -104 111 -361 382 -569 602 -776 820 -1391 1472
-1404 1488 -20 25 31 138 62 138 11 0 397 -59 856 -131z m-2230 -903 c122 -16
198 -29 263 -47 35 -9 39 -13 34 -37 -3 -15 -44 -160 -91 -322 -48 -162 -114
-392 -147 -510 -49 -173 -75 -247 -136 -378 -60 -127 -81 -164 -99 -168 -25
-7 -64 11 -64 29 0 7 -36 327 -79 712 -43 385 -76 705 -74 712 3 6 17 14 31
16 65 10 257 6 362 -7z m7395 4 c118 -13 214 -30 220 -40 3 -4 -13 -86 -35
-181 -22 -96 -87 -394 -145 -664 -122 -564 -122 -565 -138 -566 -40 -3 -94 4
-103 14 -6 7 -19 55 -28 107 -10 52 -64 358 -122 679 -57 321 -104 596 -104
611 0 26 4 29 43 34 126 17 290 19 412 6z m-7850 -20 c13 -21 166 -1433 156
-1443 -5 -5 -35 -18 -67 -29 -47 -16 -59 -17 -69 -6 -7 7 -101 175 -210 373
-109 198 -263 478 -342 622 -82 148 -141 267 -137 274 23 38 351 162 524 198
110 23 136 25 145 11z m5085 -31 l22 -30 -255 -637 c-159 -398 -259 -637 -268
-637 -9 0 -22 39 -40 115 -14 63 -38 156 -53 205 -48 158 -46 383 7 639 l12
60 122 62 c68 34 187 105 265 157 79 53 148 96 155 96 6 1 21 -13 33 -30z
m2252 -24 c7 -39 179 -1006 220 -1237 11 -65 18 -124 15 -132 -7 -18 -99 -49
-120 -40 -15 5 -106 144 -637 973 -113 176 -141 227 -133 240 13 22 210 121
319 160 130 47 254 80 294 78 32 -2 35 -5 42 -42z m923 -11 c123 -40 320 -131
409 -188 42 -27 56 -41 52 -53 -6 -14 -495 -719 -731 -1053 -86 -121 -105
-135 -144 -103 l-22 18 116 530 c63 292 131 604 151 695 30 138 46 190 58 190
1 0 51 -16 111 -36z m-7368 -19 c18 -8 33 -20 33 -27 0 -7 -63 -146 -139 -308
-124 -263 -161 -329 -161 -289 0 6 38 143 84 303 46 160 87 304 91 319 5 25 9
28 32 22 15 -3 42 -13 60 -20z m5072 -220 c41 -45 59 -71 54 -80 -5 -8 -30
-39 -57 -70 -32 -38 -52 -53 -58 -47 -27 27 -61 255 -42 275 11 11 39 -10 103
-78z m-4653 9 c48 -33 84 -63 84 -73 0 -18 -572 -741 -597 -755 -28 -15 -9 29
148 361 83 175 173 364 200 421 31 67 54 102 64 102 9 0 54 -25 101 -56z
m-2029 34 c13 -16 630 -1132 667 -1207 l27 -53 -21 -23 c-11 -12 -31 -28 -45
-35 -22 -12 -49 8 -584 435 -343 274 -561 454 -561 465 0 42 258 283 409 382
78 51 93 56 108 36z m7524 -325 c210 -329 249 -393 249 -406 0 -6 -10 -2 -22
9 -43 38 -528 599 -528 611 0 15 79 72 101 73 10 0 83 -106 200 -287z m2065
190 c150 -123 384 -381 384 -425 0 -9 -10 -23 -22 -29 -19 -10 -503 -319
-1072 -683 -66 -42 -123 -76 -126 -76 -10 0 -80 78 -80 89 0 4 8 19 18 32 10
13 180 256 377 539 435 625 424 610 439 610 7 0 43 -26 82 -57z m-3483 -166
c107 -230 207 -461 207 -479 0 -8 -20 -75 -44 -149 -55 -168 -92 -355 -107
-540 -6 -79 -14 -147 -18 -151 -4 -5 -74 -9 -155 -10 l-149 -3 -18 52 c-37
108 -81 176 -177 272 -60 61 -92 100 -89 110 5 19 427 1073 433 1083 13 21 40
-21 117 -185z m-3851 90 c220 -191 436 -525 532 -819 39 -118 76 -286 76 -342
0 -42 4 -40 -150 -55 -58 -6 -366 -40 -685 -76 -318 -36 -587 -65 -596 -65
-23 0 -63 120 -46 136 10 10 290 165 1012 561 105 58 198 113 209 123 19 19
15 40 -9 40 -8 0 -191 -97 -407 -217 -695 -382 -826 -453 -841 -453 -9 0 -28
16 -43 36 l-28 36 36 71 c25 51 146 211 423 557 407 510 424 530 437 530 4 0
41 -28 80 -63z m5198 -526 c179 -205 329 -380 334 -389 20 -34 -40 1 -263 154
-163 112 -231 165 -231 178 0 17 -81 155 -232 393 -32 51 -58 94 -58 97 0 2 8
12 17 21 21 22 4 40 433 -454z m-357 180 c132 -173 155 -210 121 -197 -22 9
-374 256 -374 263 0 17 85 113 99 113 10 0 73 -73 154 -179z m-7096 -358 c301
-241 554 -443 562 -449 13 -10 13 -16 -4 -53 -10 -23 -24 -46 -31 -51 -8 -8
-174 36 -581 154 -312 90 -622 180 -688 198 l-120 35 2 39 c4 107 247 564 299
564 8 0 261 -197 561 -437z m7295 31 c266 -186 529 -369 585 -408 62 -43 103
-78 103 -88 0 -10 -8 -33 -17 -53 -12 -25 -23 -35 -40 -35 -14 0 -169 32 -346
70 -177 39 -389 85 -472 103 l-150 33 -16 54 c-9 30 -33 116 -54 190 -20 74
-58 188 -86 252 -27 65 -49 125 -49 134 0 20 38 84 50 84 5 0 226 -151 492
-336z m2803 121 c96 -192 186 -470 159 -495 -5 -4 -317 -62 -694 -129 -377
-67 -693 -123 -703 -125 -23 -6 -40 13 -57 63 -12 36 -11 44 1 55 8 7 273 179
589 381 316 202 582 373 590 381 8 8 22 13 30 12 8 -2 46 -66 85 -143z
m-10290 -565 c363 -105 668 -193 678 -196 14 -4 17 -17 17 -63 0 -31 -6 -64
-12 -73 -11 -13 -141 -31 -693 -92 -374 -42 -694 -76 -711 -76 -20 0 -34 6
-38 16 -10 26 -7 327 4 411 14 106 40 234 52 256 5 11 16 16 26 13 9 -3 314
-91 677 -196z m8703 -32 c114 -54 182 -175 168 -297 -30 -251 -333 -361 -509
-184 -52 51 -60 80 -24 87 12 3 74 7 138 9 99 3 121 6 152 26 41 25 64 80 53
124 -3 14 -47 73 -96 130 -50 58 -90 112 -90 120 0 36 119 28 208 -15z m1773
15 c17 -43 24 -385 10 -499 -15 -126 -18 -134 -42 -134 -12 0 -255 51 -542
114 -287 63 -589 129 -672 146 -199 41 -195 39 -195 94 0 34 4 46 18 50 9 3
208 39 442 81 234 41 544 97 690 124 146 27 268 50 273 50 4 1 12 -11 18 -26z
m-2895 -72 c429 -94 450 -99 437 -112 -5 -5 -126 -16 -269 -24 -142 -8 -342
-19 -444 -25 -243 -13 -320 -13 -320 1 0 7 41 63 92 125 75 93 97 114 118 114
15 0 188 -35 386 -79z m-6466 54 c0 -9 -22 -63 -49 -120 -64 -135 -67 -153
-42 -209 25 -57 69 -86 131 -86 76 0 102 24 166 154 60 124 75 144 91 124 19
-24 36 -92 36 -143 0 -134 -85 -246 -222 -290 -138 -46 -307 39 -360 181 -49
131 -6 279 103 353 70 48 146 66 146 36z m5579 -7 c-1 -7 -5 -24 -9 -38 -7
-22 -8 -21 -9 13 -1 20 4 37 9 37 6 0 10 -6 9 -12z m-966 -97 c45 -48 97 -137
97 -165 0 -19 -21 -24 -133 -29 -68 -4 -91 -2 -102 10 -8 8 -15 15 -15 17 0 5
73 182 81 199 14 25 22 22 72 -32z m-2663 -10 c13 -25 13 -239 0 -356 -15
-126 -47 -276 -62 -291 -10 -9 -31 -7 -98 13 -47 13 -328 94 -625 179 -297 86
-570 164 -607 175 l-68 20 0 43 c0 23 6 49 13 58 9 13 92 25 392 58 325 37
1015 115 1037 119 4 0 12 -8 18 -18z m-2355 -301 c9 -27 14 -54 11 -59 -4 -5
-46 -31 -94 -57 -48 -26 -326 -179 -619 -341 -293 -161 -537 -293 -543 -293
-14 0 -89 157 -128 271 -44 126 -96 366 -79 370 15 3 1380 157 1404 158 29 1
33 -3 48 -49z m9050 -115 c368 -80 674 -150 680 -156 21 -21 -61 -271 -143
-434 -65 -130 -110 -198 -127 -191 -11 4 -1041 718 -1162 805 -28 20 -28 34
-3 90 19 41 22 43 53 38 17 -3 333 -72 702 -152z m-1612 88 c14 -35 14 -39 -1
-54 -16 -16 -1130 -731 -1180 -758 -33 -18 -41 -8 -105 122 -82 167 -145 344
-163 458 -6 34 -4 39 18 44 14 4 294 55 624 115 470 84 620 108 695 109 l97 1
15 -37z m-5903 -171 c779 -226 730 -211 736 -226 23 -60 -265 -601 -321 -601
-22 0 -1124 875 -1124 893 -1 14 34 88 52 110 6 7 15 11 21 9 6 -2 292 -86
636 -185z m5008 159 c11 -7 11 -9 -2 -14 -16 -7 -415 -80 -498 -92 -58 -9 -62
4 -19 55 l28 35 204 11 c277 15 272 15 287 5z m-6473 -98 c53 -58 72 -29 -396
-615 -237 -299 -436 -547 -440 -552 -35 -39 -245 172 -394 396 -31 48 -55 93
-52 100 2 8 182 111 398 230 217 119 495 273 619 342 124 69 228 125 232 125
4 1 19 -11 33 -26z m5061 0 c-13 -56 -68 -154 -115 -205 -52 -56 -120 -101
-137 -90 -12 9 -74 167 -74 190 0 9 25 43 55 75 l55 57 111 0 111 0 -6 -27z
m2401 -25 c18 -18 33 -38 33 -46 0 -7 -118 -183 -263 -390 -145 -207 -330
-473 -411 -589 -81 -117 -151 -213 -156 -213 -18 0 -121 89 -230 199 -125 125
-233 262 -228 287 3 14 250 176 978 640 124 79 229 144 235 144 5 0 24 -14 42
-32z m741 14 c44 -30 1022 -712 1090 -759 34 -24 62 -50 62 -58 0 -19 -102
-144 -192 -235 -70 -72 -184 -169 -257 -220 l-34 -23 -19 22 c-35 44 -754
1168 -765 1198 -6 14 62 93 80 93 5 0 21 -8 35 -18z m-6904 -495 c295 -235
536 -434 536 -443 0 -20 -158 -182 -250 -257 -104 -84 -251 -178 -273 -175
-14 2 -118 182 -358 618 -186 338 -339 622 -339 630 0 8 21 32 46 53 47 37 47
37 75 20 15 -10 268 -211 563 -446z m-1141 372 c41 -22 57 -36 57 -51 0 -33
-380 -1342 -394 -1356 -42 -43 -637 266 -624 324 3 15 803 1020 857 1077 19
20 38 37 41 37 4 0 32 -14 63 -31z m4246 14 c0 -27 -55 -157 -67 -161 -5 -1
-22 8 -37 21 -26 22 -27 26 -16 58 7 22 27 47 54 66 48 36 67 40 66 16z m3218
-15 c35 -13 65 -28 67 -34 2 -6 -58 -299 -135 -650 -77 -352 -145 -666 -152
-699 -11 -50 -17 -61 -36 -63 -34 -5 -222 54 -343 108 -117 52 -298 155 -298
170 0 5 172 255 381 557 449 645 441 633 448 633 3 0 34 -10 68 -22z m731
-486 c437 -682 455 -710 449 -725 -7 -18 -203 -118 -316 -162 -140 -54 -273
-88 -288 -72 -6 6 -66 318 -132 692 -143 805 -129 722 -122 733 10 15 64 40
78 35 7 -3 156 -228 331 -501z m-7452 -155 c186 -336 339 -621 342 -632 3 -18
-6 -26 -55 -48 -241 -107 -563 -189 -577 -146 -3 8 -18 142 -35 299 -17 157
-51 467 -76 688 -25 222 -45 411 -43 420 3 17 73 43 95 35 6 -3 163 -280 349
-616z m3733 596 c36 -78 61 -157 52 -166 -5 -5 -30 -12 -55 -14 -36 -5 -47 -2
-52 11 -6 16 13 173 22 188 9 15 21 8 33 -19z m3238 5 c6 -7 25 -96 42 -198
18 -102 72 -410 122 -685 49 -274 89 -511 87 -524 -4 -35 -36 -41 -259 -48
-194 -6 -384 8 -406 30 -9 9 22 167 138 697 82 377 151 695 154 707 4 17 14
23 48 26 23 2 47 4 53 5 6 1 16 -4 21 -10z m-7479 -20 c5 -7 45 -329 88 -716
69 -613 77 -704 64 -713 -27 -18 -411 -4 -523 20 -130 27 -137 29 -137 50 0
29 373 1319 391 1354 12 21 100 24 117 5z m3865 -289 c6 -9 -7 -54 -40 -139
-41 -106 -52 -126 -72 -128 -20 -3 -23 0 -18 20 7 31 82 242 91 257 9 14 26
10 39 -10z m239 -154 c-5 -115 -5 -115 -63 -115 -59 0 -59 2 -22 102 32 88 40
100 67 96 20 -3 21 -8 18 -83z"/>
</g>
</svg>
